<svg width="95" height="27" viewBox="0 0 95 27" fill="none" xmlns="http://www.w3.org/2000/svg">
<g id="Group 1000004154">
<path id="Vector" d="M11.9071 26.9709H3.44385L11.9071 14.1729H20.3704L11.9071 26.9709Z" fill="#FF8E42"/>
<path id="Vector_2" d="M8.81051 0.961914H17.4801L8.81051 14.1727H0.140869L8.81051 0.961914Z" fill="#FF6600"/>
<path id="Vector_3" d="M37.6357 12.0955C37.6357 12.8804 37.4464 13.6161 37.068 14.303C36.7036 14.9896 36.122 15.5432 35.3232 15.9637C34.5383 16.3841 33.5433 16.5944 32.3381 16.5944H29.8782V22.2283H26.9352V7.55469H32.3381C33.4732 7.55469 34.4402 7.75091 35.239 8.14332C36.0381 8.53574 36.6335 9.07531 37.0261 9.76206C37.4326 10.4488 37.6357 11.2266 37.6357 12.0955ZM32.2117 14.2188C33.0247 14.2188 33.6273 14.0367 34.0199 13.6723C34.4122 13.2939 34.6084 12.7683 34.6084 12.0955C34.6084 10.666 33.8096 9.95127 32.2117 9.95127H29.8782V14.2188H32.2117Z" fill="#FFFAFF"/>
<path id="Vector_4" d="M41.8275 12.3892C42.2059 11.7725 42.6964 11.289 43.299 10.9387C43.9157 10.5883 44.6165 10.4131 45.4014 10.4131V13.5035H44.6234C43.6985 13.5035 42.9978 13.7207 42.5212 14.1552C42.0588 14.5896 41.8275 15.3463 41.8275 16.4255V22.2277H38.8844V10.5813H41.8275V12.3892Z" fill="#FFFAFF"/>
<path id="Vector_5" d="M51.7143 22.4174C50.593 22.4174 49.5839 22.1722 48.687 21.6818C47.7901 21.1772 47.0822 20.4693 46.5638 19.5583C46.0593 18.6476 45.8069 17.5964 45.8069 16.405C45.8069 15.2138 46.0662 14.1626 46.5849 13.2516C47.1174 12.3407 47.8392 11.6399 48.7502 11.1494C49.6612 10.6449 50.6772 10.3926 51.7985 10.3926C52.9196 10.3926 53.9356 10.6449 54.8466 11.1494C55.7576 11.6399 56.4724 12.3407 56.9911 13.2516C57.5236 14.1626 57.7899 15.2138 57.7899 16.405C57.7899 17.5964 57.5165 18.6476 56.97 19.5583C56.4373 20.4693 55.7086 21.1772 54.7837 21.6818C53.8727 22.1722 52.8495 22.4174 51.7143 22.4174ZM51.7143 19.8528C52.2468 19.8528 52.7444 19.7265 53.2069 19.4744C53.6834 19.2081 54.0619 18.8157 54.3421 18.2971C54.6224 17.7784 54.7626 17.1478 54.7626 16.405C54.7626 15.2978 54.4684 14.4499 53.8796 13.8612C53.305 13.2586 52.5973 12.9574 51.7564 12.9574C50.9155 12.9574 50.2076 13.2586 49.6332 13.8612C49.0724 14.4499 48.7923 15.2978 48.7923 16.405C48.7923 17.5121 49.0655 18.3672 49.6121 18.9698C50.1727 19.5583 50.8734 19.8528 51.7143 19.8528Z" fill="#FFFAFF"/>
<path id="Vector_6" d="M62.051 19.8942H65.2117V22.2277H59.1079V5.74609H62.051V19.8942Z" fill="#FFFAFF"/>
<path id="Vector_7" d="M67.4948 9.1938C66.9764 9.1938 66.5417 9.03262 66.1914 8.71028C65.8551 8.37392 65.6869 7.96047 65.6869 7.46995C65.6869 6.97942 65.8551 6.57298 66.1914 6.25064C66.5417 5.91428 66.9764 5.74609 67.4948 5.74609C68.0134 5.74609 68.4407 5.91428 68.7771 6.25064C69.1276 6.57298 69.3027 6.97942 69.3027 7.46995C69.3027 7.96047 69.1276 8.37392 68.7771 8.71028C68.4407 9.03262 68.0134 9.1938 67.4948 9.1938ZM68.9453 10.5813V22.2277H66.0022V10.5813H68.9453Z" fill="#FFFAFF"/>
<path id="Vector_8" d="M77.4663 10.4131C78.8536 10.4131 79.9749 10.8546 80.8299 11.7375C81.6847 12.6064 82.1122 13.8257 82.1122 15.3954V22.2277H79.1689V15.7949C79.1689 14.8698 78.9378 14.1621 78.4754 13.6717C78.0127 13.1671 77.3821 12.9148 76.5833 12.9148C75.7703 12.9148 75.1256 13.1671 74.649 13.6717C74.1866 14.1621 73.9555 14.8698 73.9555 15.7949V22.2277H71.0122V10.5813H73.9555V12.0318C74.3479 11.5273 74.8455 11.1349 75.4481 10.8546C76.0646 10.5602 76.7373 10.4131 77.4663 10.4131Z" fill="#FFFAFF"/>
<path id="Vector_9" d="M94.8966 16.1528C94.8966 16.5732 94.8686 16.9516 94.8126 17.288H86.2985C86.3684 18.1289 86.6629 18.7875 87.1813 19.2641C87.7 19.7406 88.3375 19.9789 89.0945 19.9789C90.1875 19.9789 90.9655 19.5093 91.4279 18.5703H94.6023C94.266 19.6916 93.6212 20.6165 92.6681 21.3454C91.7153 22.06 90.5449 22.4174 89.1574 22.4174C88.0363 22.4174 87.0272 22.1722 86.1303 21.6818C85.2473 21.1772 84.5535 20.4693 84.049 19.5583C83.5586 18.6476 83.3131 17.5964 83.3131 16.405C83.3131 15.1997 83.5586 14.1416 84.049 13.2306C84.5394 12.3197 85.2263 11.6189 86.1093 11.1284C86.9921 10.6378 88.0083 10.3926 89.1574 10.3926C90.2645 10.3926 91.2528 10.6308 92.1217 11.1073C93.0045 11.5839 93.6844 12.2636 94.161 13.1466C94.6514 14.0155 94.8966 15.0177 94.8966 16.1528ZM91.8483 15.3119C91.8344 14.555 91.561 13.9523 91.0284 13.504C90.4959 13.0413 89.8442 12.8102 89.0734 12.8102C88.3447 12.8102 87.7279 13.0344 87.2234 13.483C86.733 13.9174 86.4315 14.527 86.3193 15.3119H91.8483Z" fill="#FFFAFF"/>
</g>
</svg>
