<svg width="94" height="27" viewBox="0 0 94 27" fill="none" xmlns="http://www.w3.org/2000/svg">
<g id="Group 1000004155">
<path id="Vector" d="M30.6074 5.09283V1.86914H46.8266V5.09283H40.5661V24.1745H36.9329V5.09283H30.6074Z" fill="#FFFAFF"/>
<path id="Vector_2" d="M56.7613 21.244L57.6697 21.1464L57.7345 23.784C55.2693 24.2833 53.0849 24.5328 51.1819 24.5328C48.7814 24.5328 47.0515 23.8707 45.9919 22.5466C44.9538 21.2223 44.4347 19.1057 44.4347 16.1968C44.4347 10.4224 46.7812 7.53516 51.4739 7.53516C56.0153 7.53516 58.2861 10.0208 58.2861 14.9919L58.059 17.5319H48.0029C48.0246 18.8777 48.3165 19.8655 48.8789 20.495C49.441 21.1246 50.4901 21.4394 52.0253 21.4394C53.5609 21.4394 55.1394 21.3742 56.7613 21.244ZM54.8151 14.7966C54.8151 13.1903 54.5555 12.0723 54.0366 11.4427C53.5391 10.7914 52.6849 10.4658 51.4739 10.4658C50.263 10.4658 49.3763 10.8023 48.8139 11.4752C48.2732 12.1482 47.9922 13.2553 47.9707 14.7966H54.8151Z" fill="#FFFAFF"/>
<path id="Vector_3" d="M60.0641 24.1746V7.89336H63.5674V9.8471C65.4054 8.65315 67.2438 7.88249 69.0818 7.53516V11.0845C67.222 11.4535 65.6325 11.9312 64.3134 12.5172L63.5998 12.8104V24.1746H60.0641Z" fill="#FFFAFF"/>
<path id="Vector_4" d="M70.163 24.1746V7.89336H73.6665V9.8471C75.5046 8.65315 77.3426 7.88249 79.181 7.53516V11.0845C77.3211 11.4535 75.7317 11.9312 74.4125 12.5172L73.6987 12.8104V24.1746H70.163Z" fill="#FFFAFF"/>
<path id="Vector_5" d="M92.2642 12.9081V20.3324C92.2859 20.8099 92.4048 21.1681 92.6212 21.4069C92.859 21.6239 93.2158 21.7651 93.6915 21.83L93.5943 24.5328C91.7345 24.5328 90.2964 24.1312 89.2798 23.3279C87.5499 24.1312 85.809 24.5328 84.0574 24.5328C80.8352 24.5328 79.224 22.8071 79.224 19.3555C79.224 17.7055 79.6565 16.5116 80.5217 15.7735C81.4081 15.0354 82.7597 14.5903 84.5763 14.4384L88.7609 14.0802V12.9081C88.7609 12.0396 88.5663 11.4318 88.177 11.0845C87.8093 10.7371 87.2579 10.5635 86.5226 10.5635C85.1387 10.5635 83.4086 10.6503 81.3324 10.824L80.2946 10.8891L80.1647 8.38179C82.5219 7.81737 84.6845 7.53516 86.6525 7.53516C88.642 7.53516 90.0693 7.96931 90.9343 8.83766C91.821 9.68429 92.2642 11.0411 92.2642 12.9081ZM84.9981 16.9457C83.506 17.076 82.7597 17.8901 82.7597 19.388C82.7597 20.8859 83.4193 21.6347 84.7385 21.6347C85.8198 21.6347 86.9661 21.4611 88.177 21.1137L88.7609 20.9183V16.5875L84.9981 16.9457Z" fill="#FFFAFF"/>
<path id="Vector_6" fill-rule="evenodd" clip-rule="evenodd" d="M20.7943 0C23.617 0 25.9721 2.00222 26.5168 4.66393C26.5946 5.04418 26.6355 5.43787 26.6355 5.84112V20.7944C26.6355 24.0203 24.0203 26.6355 20.7943 26.6355H5.84112C5.20245 26.6355 4.58776 26.5329 4.01252 26.3437C1.6822 25.5762 0 23.3818 0 20.7944V5.84112C0 2.61516 2.61516 0 5.84112 0H20.7943ZM18.4252 1.86916H20.7943C22.7301 1.86916 24.3425 3.25397 24.6948 5.08696C23.5707 5.21432 22.2857 5.09631 20.9287 4.51479C19.7264 3.99942 18.9287 3.04463 18.4252 1.86916ZM12.8792 1.86916H16.4294C17.0193 3.64474 18.1493 5.35715 20.1925 6.2328C21.8315 6.93523 23.388 7.09818 24.7663 6.96131V8.87119C22.895 9.46357 21.0303 9.70332 19.5383 9.26661C18.7971 9.0497 17.9467 8.47378 17.0315 7.5678C16.1289 6.67423 15.2282 5.52495 14.3778 4.26869C13.8493 3.48801 13.346 2.67479 12.8792 1.86916ZM10.7325 1.86916H8.25916C8.37189 3.98428 7.87353 6.5678 6.01965 9.18505C4.79143 10.919 3.33897 11.8727 1.86916 12.2986V16.025C2.75481 15.4871 3.79745 14.7526 5.01818 13.7607C7.9025 11.4172 10.1743 10.4847 11.8969 10.3142C13.6095 10.1446 14.8271 10.7387 15.3633 11.4896C15.9264 12.2778 16.2446 13.3341 16.3644 14.4481C16.4857 15.5757 16.4119 16.8334 16.1273 18.0815C15.5621 20.5629 14.1268 23.1456 11.5413 24.5379C11.4005 24.6138 11.2584 24.69 11.1152 24.7664H14.0205C15.1567 23.3238 16.0661 21.8907 16.3922 20.7675C16.7602 19.4995 16.9114 18.1554 17.0525 16.8988L17.0528 16.8986V16.8981C17.1035 16.447 17.153 16.0068 17.2107 15.5855C17.3109 14.8556 17.4493 14.0822 17.7462 13.5245C17.9035 13.2294 18.1532 12.9009 18.5551 12.7112C18.9782 12.5114 19.4186 12.536 19.8049 12.6647C20.8876 13.0257 22.3268 13.1005 24.7663 12.4893V10.8221C22.885 11.3522 20.8338 11.5934 19.013 11.0605C17.8383 10.7167 16.7231 9.89266 15.7165 8.89612C14.6974 7.8872 13.7203 6.6314 12.8301 5.31659C12.0686 4.19192 11.3598 3.00745 10.7325 1.86916ZM24.7663 14.4117C22.4422 14.9437 20.771 14.9215 19.3574 14.4841C19.253 14.7287 19.1556 15.1624 19.0626 15.8397C19.0163 16.1762 18.9736 16.5586 18.9271 16.9722C18.7827 18.261 18.6044 19.8516 18.1871 21.2886C17.8675 22.39 17.1759 23.6 16.3539 24.7664H18.2343C18.5813 23.9037 18.9007 23.0822 19.1516 22.3918C19.4212 21.6498 19.5899 21.1161 19.6443 20.8446C19.7474 20.329 19.9439 19.7741 20.4049 19.3808C20.8843 18.9715 21.4731 18.8836 22.0247 18.9117C22.5679 18.9395 23.2049 19.0857 23.9233 19.2918C24.1845 19.3666 24.4654 19.4521 24.7663 19.5472V14.4117ZM24.7056 21.4904C24.2177 21.332 23.7883 21.1977 23.4079 21.0886C22.7137 20.8893 22.2481 20.7946 21.9299 20.7785C21.7243 20.768 21.6411 20.7935 21.6172 20.804C21.6037 20.8199 21.5373 20.9103 21.4773 21.2112C21.3913 21.6407 21.1738 22.2995 20.9084 23.0301C20.7179 23.5544 20.4915 24.1456 20.2464 24.7664H20.7943C22.7507 24.7664 24.3766 23.3521 24.7056 21.4904ZM7.08217 24.7664C8.30624 24.135 9.54173 23.4916 10.6551 22.8921C12.6257 21.8311 13.8189 19.7995 14.3049 17.6664C14.5462 16.6072 14.6037 15.5575 14.506 14.6481C14.4067 13.725 14.1556 13.0145 13.8422 12.5759C13.7946 12.5091 13.3182 12.0519 12.081 12.1743C10.8539 12.2958 8.92002 12.9988 6.19687 15.2114C4.49222 16.5965 3.06568 17.5453 1.86916 18.1727V20.2806C2.16411 20.0107 2.49717 19.7853 2.80498 19.593C3.11855 19.397 3.46023 19.2042 3.79603 19.0159L3.87925 18.9692C4.19292 18.7935 4.50425 18.6189 4.81341 18.4339C5.4897 18.0287 6.0978 17.6056 6.5654 17.1133C7.37498 16.261 8.5435 15.2439 9.64208 14.5495C10.184 14.2068 10.7693 13.9037 11.3216 13.7647C11.8399 13.6341 12.6434 13.5811 13.2035 14.2213C13.7364 14.8304 13.9572 15.7439 13.5691 16.9297C13.2004 18.0561 12.2745 19.478 10.4847 21.3276C8.62692 23.2472 6.76907 24.2089 5.20276 24.5154C5.0261 24.55 4.85231 24.5762 4.68203 24.5946C5.04872 24.7063 5.4379 24.7664 5.84112 24.7664H7.08217ZM1.86916 10.321C2.77474 9.9454 3.67694 9.25867 4.49437 8.10463C6.10844 5.82596 6.49848 3.61638 6.38741 1.86916H5.84112C3.64745 1.86916 1.86916 3.64748 1.86916 5.84112V10.321ZM21.6154 20.8049C21.6109 20.807 21.6091 20.8084 21.6093 20.8084C21.6095 20.8086 21.6105 20.8082 21.6121 20.807L21.6133 20.8063L21.6154 20.8049ZM10.6408 16.1294C9.69953 16.7243 8.6483 17.6346 7.92061 18.4007C7.27853 19.0766 6.49942 19.6028 5.77383 20.0374C5.4404 20.2369 5.10603 20.4243 4.79612 20.5981L4.71028 20.6463C4.37065 20.8367 4.06614 21.0089 3.79558 21.178C3.21217 21.5425 2.96829 21.7879 2.89185 21.9446C2.86993 21.9897 2.86731 22.0154 2.87409 22.0547C2.88369 22.1107 2.92393 22.24 3.084 22.4533L3.09956 22.4741L3.11395 22.4956C3.11484 22.4967 3.13589 22.5259 3.20278 22.5668C3.27187 22.6091 3.37881 22.6568 3.5307 22.6942C3.83596 22.7694 4.2803 22.7911 4.84388 22.6808C5.96453 22.4617 7.4946 21.7294 9.14152 20.0276C10.8565 18.2556 11.554 17.0771 11.7927 16.3484C11.9348 15.9143 11.9056 15.6792 11.8602 15.5591C11.8373 15.5633 11.8102 15.5692 11.7782 15.5773C11.5083 15.6453 11.1187 15.8273 10.6408 16.1294ZM11.9607 15.5502C11.9602 15.5509 11.9546 15.5509 11.9453 15.5491C11.9563 15.5488 11.9612 15.5498 11.9607 15.5502Z" fill="url(#paint0_linear_1_12627)"/>
</g>
<defs>
<linearGradient id="paint0_linear_1_12627" x1="26.5301" y1="9.73475e-08" x2="-0.105415" y2="26.6355" gradientUnits="userSpaceOnUse">
<stop stop-color="#EB4E23"/>
<stop offset="1" stop-color="#5A1D0C"/>
</linearGradient>
</defs>
</svg>
